<svg width="14" height="14" viewBox="0 0 14 14" fill="none" xmlns="http://www.w3.org/2000/svg">
<path d="M13.53 12.4698C13.823 12.7628 13.823 13.2378 13.53 13.5308C13.384 13.6768 13.192 13.7508 13 13.7508C12.808 13.7508 12.616 13.6778 12.47 13.5308L6.99999 8.06075L1.52999 13.5308C1.38399 13.6768 1.19199 13.7508 0.999993 13.7508C0.807993 13.7508 0.615994 13.6778 0.469994 13.5308C0.176994 13.2378 0.176994 12.7628 0.469994 12.4698L5.94 6.99978L0.469994 1.52981C0.176994 1.23681 0.176994 0.761773 0.469994 0.468773C0.762994 0.175773 1.238 0.175773 1.531 0.468773L7.001 5.93881L12.471 0.468773C12.764 0.175773 13.239 0.175773 13.532 0.468773C13.825 0.761773 13.825 1.23681 13.532 1.52981L8.06199 6.99978L13.53 12.4698Z" fill="#000000"/>
</svg>
